<?xml version="1.0" encoding="UTF-8" standalone="no"?><!DOCTYPE svg PUBLIC "-//W3C//DTD SVG 1.1//EN" "http://www.w3.org/Graphics/SVG/1.1/DTD/svg11.dtd"><svg width="100%" height="100%" viewBox="0 0 500 1609" version="1.1" xmlns="http://www.w3.org/2000/svg" xmlns:xlink="http://www.w3.org/1999/xlink" xml:space="preserve" xmlns:serif="http://www.serif.com/" style="fill-rule:evenodd;clip-rule:evenodd;stroke-linejoin:round;stroke-miterlimit:2;"><rect id="Artboard1" x="0" y="0" width="500" height="1609" style="fill:none;"/><path d="M266.122,72.378l122.679,-0l54.143,486.605l-135.701,-0l-3.512,-95.265l-118.696,-0l-43.649,95.265l-136.386,-0l261.122,-486.605Zm34.332,302.243l-5.547,-150.779l-69.072,150.779l74.619,0Z" style="fill:#fff;fill-opacity:0.1;fill-rule:nonzero;"/><path d="M108.489,579.548l200.125,-0c26.044,-0 48.432,6.739 67.165,20.218c18.733,13.479 33.012,30.955 42.835,52.43c9.824,21.475 14.735,44.091 14.735,67.851c0,23.759 -5.026,47.289 -15.078,70.592c-10.051,23.302 -23.987,44.434 -41.806,63.395c-17.82,18.962 -38.381,34.154 -61.683,45.577c-23.302,11.422 -48.203,17.134 -74.704,17.134l-69.906,-0l-31.527,149.408l-133.645,-0l103.489,-486.605Zm147.352,220.686c4.113,-0 8.453,-1.371 13.022,-4.113c4.569,-2.741 9.024,-6.967 13.365,-12.679c4.34,-5.711 7.767,-12.907 10.28,-21.589c2.513,-8.681 3.77,-18.961 3.77,-30.841c-0,-9.138 -1.143,-16.22 -3.427,-21.246c-2.285,-5.026 -5.026,-8.567 -8.225,-10.623c-3.198,-2.056 -6.625,-3.084 -10.28,-3.084l-56.885,0l-21.931,104.175l60.311,-0Z" style="fill:#fff;fill-opacity:0.1;fill-rule:nonzero;"/><path d="M171.542,1576.75c-39.751,-0 -71.848,-7.3 -96.293,-21.9c-24.444,-14.599 -42.264,-34.56 -53.458,-59.883c-11.194,-25.322 -16.791,-53.726 -16.791,-85.209c0,-11.866 0.685,-23.843 2.056,-35.933c1.371,-12.091 3.427,-24.525 6.168,-37.304l53.458,-249.803l133.645,0l-53.458,249.696c-1.827,8.667 -3.198,16.991 -4.112,24.972c-0.914,7.982 -1.371,15.849 -1.371,23.602c0,14.136 1.828,26.676 5.483,37.62c3.656,10.945 9.595,19.61 17.82,25.996c8.224,6.386 18.961,9.579 32.212,9.579c13.707,-0 26.043,-3.308 37.009,-9.922c10.966,-6.614 20.789,-15.737 29.47,-27.366c8.682,-11.63 15.992,-24.741 21.932,-39.333c5.94,-14.593 10.509,-29.642 13.707,-45.148l53.458,-249.696l133.645,0l-53.458,249.803c-7.311,33.768 -18.276,65.252 -32.897,94.451c-14.621,29.199 -32.897,54.75 -54.829,76.653c-21.931,21.903 -47.404,38.899 -76.417,50.989c-29.014,12.091 -61.34,18.136 -96.979,18.136Z" style="fill:#fff;fill-opacity:0.1;fill-rule:nonzero;"/></svg>